{
    "asset" : {
        "generator" : "Khronos glTF Blender I/O v3.2.43",
        "version" : "2.0"
    },
    "scene" : 0,
    "scenes" : [
        {
            "name" : "Scene",
            "nodes" : [
                0
            ]
        }
    ],
    "nodes" : [
        {
            "mesh" : 0,
            "name" : "Sphere",
            "rotation" : [
                0.7071068286895752,
                0,
                0,
                0.7071067094802856
            ],
            "scale" : [
                0.004999998025596142,
                0.004999999888241291,
                0.004999999888241291
            ]
        }
    ],
    "meshes" : [
        {
            "name" : "Sphere.001",
            "primitives" : [
                {
                    "attributes" : {
                        "POSITION" : 0,
                        "NORMAL" : 1,
                        "TEXCOORD_0" : 2
                    },
                    "indices" : 3
                }
            ]
        }
    ],
    "accessors" : [
        {
            "bufferView" : 0,
            "componentType" : 5126,
            "count" : 1223,
            "max" : [
                0.9999999403953552,
                0.9999999403953552,
                1
            ],
            "min" : [
                -1.0000008344650269,
                -1,
                -1
            ],
            "type" : "VEC3"
        },
        {
            "bufferView" : 1,
            "componentType" : 5126,
            "count" : 1223,
            "type" : "VEC3"
        },
        {
            "bufferView" : 2,
            "componentType" : 5126,
            "count" : 1223,
            "type" : "VEC2"
        },
        {
            "bufferView" : 3,
            "componentType" : 5123,
            "count" : 6624,
            "type" : "SCALAR"
        }
    ],
    "bufferViews" : [
        {
            "buffer" : 0,
            "byteLength" : 14676,
            "byteOffset" : 0
        },
        {
            "buffer" : 0,
            "byteLength" : 14676,
            "byteOffset" : 14676
        },
        {
            "buffer" : 0,
            "byteLength" : 9784,
            "byteOffset" : 29352
        },
        {
            "buffer" : 0,
            "byteLength" : 13248,
            "byteOffset" : 39136
        }
    ],
    "buffers" : [
        {
            "byteLength" : 52384,
            "uri" : "Sphere.bin"
        }
    ]
}
