{
    "asset" : {
        "generator" : "Khronos glTF Blender I/O v3.2.43",
        "version" : "2.0"
    },
    "extensionsUsed" : [
        "KHR_materials_unlit"
    ],
    "scene" : 0,
    "scenes" : [
        {
            "name" : "Scene",
            "nodes" : [
                14
            ]
        }
    ],
    "nodes" : [
        {
            "mesh" : 0,
            "name" : "Cube.000_0"
        },
        {
            "children" : [
                0
            ],
            "name" : "Cube.000",
            "rotation" : [
                -0.028675369918346405,
                -0.008701419457793236,
                0.00025011200341396034,
                0.9995508790016174
            ],
            "scale" : [
                1,
                1.0000046491622925,
                0.9999958872795105
            ],
            "translation" : [
                0.0052200001664459705,
                0.4066999852657318,
                0.054409999400377274
            ]
        },
        {
            "mesh" : 1,
            "name" : "Cube.001_0"
        },
        {
            "children" : [
                2
            ],
            "name" : "Cube.001",
            "rotation" : [
                -0.028675369918346405,
                -0.008701419457793236,
                0.00025011200341396034,
                0.9995508790016174
            ],
            "scale" : [
                1,
                1.0000046491622925,
                0.9999958872795105
            ],
            "translation" : [
                0.0052200001664459705,
                0.4066999852657318,
                0.054409999400377274
            ]
        },
        {
            "mesh" : 2,
            "name" : "Cube.002_0"
        },
        {
            "children" : [
                4
            ],
            "name" : "Cube.002",
            "rotation" : [
                -0.028675369918346405,
                -0.008701419457793236,
                0.00025011200341396034,
                0.9995508790016174
            ],
            "scale" : [
                1,
                1.0000046491622925,
                0.9999958872795105
            ],
            "translation" : [
                0.0052200001664459705,
                0.4066999852657318,
                0.054409999400377274
            ]
        },
        {
            "mesh" : 3,
            "name" : "Cube.004_0"
        },
        {
            "children" : [
                6
            ],
            "name" : "Cube.004",
            "rotation" : [
                -0.028675369918346405,
                -0.008701419457793236,
                0.00025011200341396034,
                0.9995508790016174
            ],
            "scale" : [
                1,
                1.0000046491622925,
                0.9999958872795105
            ],
            "translation" : [
                0.0052200001664459705,
                0.4066999852657318,
                0.054409999400377274
            ]
        },
        {
            "mesh" : 4,
            "name" : "Cube.005_0"
        },
        {
            "children" : [
                8
            ],
            "name" : "Cube.005",
            "rotation" : [
                -0.028675369918346405,
                -0.008701419457793236,
                0.00025011200341396034,
                0.9995508790016174
            ],
            "scale" : [
                1,
                1.0000046491622925,
                0.9999958872795105
            ],
            "translation" : [
                0.0052200001664459705,
                0.4066999852657318,
                0.054409999400377274
            ]
        },
        {
            "name" : "GP_Layer_CUGP_Layer",
            "rotation" : [
                0.5045194625854492,
                -0.4954392611980438,
                -0.4954392611980438,
                0.504519522190094
            ],
            "scale" : [
                1.0000048875808716,
                1,
                1.0000048875808716
            ],
            "translation" : [
                0,
                0,
                -4.91349983215332
            ]
        },
        {
            "name" : "Plane"
        },
        {
            "name" : "Plane.004",
            "rotation" : [
                -0.02867853455245495,
                0,
                0,
                0.9995887279510498
            ],
            "scale" : [
                7.4694600105285645,
                7.469456672668457,
                7.469456672668457
            ],
            "translation" : [
                1.6798299551010132,
                2.7705700397491455,
                -1.280269980430603
            ]
        },
        {
            "children" : [
                1,
                3,
                5,
                7,
                9,
                10,
                11,
                12
            ],
            "name" : "Root"
        },
        {
            "children" : [
                13
            ],
            "name" : "Sketchfab_model",
            "rotation" : [
                -0.7071068286895752,
                0,
                0,
                0.7071067094802856
            ]
        }
    ],
    "materials" : [
        {
            "alphaMode" : "BLEND",
            "extensions" : {
                "KHR_materials_unlit" : {}
            },
            "name" : "cristales",
            "pbrMetallicRoughness" : {
                "baseColorFactor" : [
                    0.0027398010715842247,
                    0.0026945967692881823,
                    0.0026185710448771715,
                    0.6724466681480408
                ],
                "baseColorTexture" : {
                    "index" : 0,
                    "texCoord" : 0
                },
                "metallicFactor" : 0,
                "roughnessFactor" : 0.9
            }
        },
        {
            "doubleSided" : true,
            "extensions" : {
                "KHR_materials_unlit" : {}
            },
            "name" : "carroceria",
            "pbrMetallicRoughness" : {
                "baseColorTexture" : {
                    "index" : 1,
                    "texCoord" : 0
                },
                "metallicFactor" : 0,
                "roughnessFactor" : 0.9
            }
        },
        {
            "extensions" : {
                "KHR_materials_unlit" : {}
            },
            "name" : "interior",
            "pbrMetallicRoughness" : {
                "baseColorFactor" : [
                    0.28744083642959595,
                    0.2541521489620209,
                    0.30946895480155945,
                    1
                ],
                "metallicFactor" : 0,
                "roughnessFactor" : 0.9
            }
        },
        {
            "doubleSided" : true,
            "extensions" : {
                "KHR_materials_unlit" : {}
            },
            "name" : "chasis",
            "pbrMetallicRoughness" : {
                "baseColorTexture" : {
                    "index" : 2,
                    "texCoord" : 0
                },
                "metallicFactor" : 0,
                "roughnessFactor" : 0.9
            }
        },
        {
            "doubleSided" : true,
            "extensions" : {
                "KHR_materials_unlit" : {}
            },
            "name" : "ruedas",
            "pbrMetallicRoughness" : {
                "baseColorTexture" : {
                    "index" : 3,
                    "texCoord" : 0
                },
                "metallicFactor" : 0,
                "roughnessFactor" : 0.9
            }
        }
    ],
    "meshes" : [
        {
            "name" : "Cube.000_0",
            "primitives" : [
                {
                    "attributes" : {
                        "POSITION" : 0,
                        "NORMAL" : 1,
                        "TANGENT" : 2,
                        "TEXCOORD_0" : 3
                    },
                    "indices" : 4,
                    "material" : 0
                }
            ]
        },
        {
            "name" : "Cube.001_0",
            "primitives" : [
                {
                    "attributes" : {
                        "POSITION" : 5,
                        "NORMAL" : 6,
                        "TANGENT" : 7,
                        "TEXCOORD_0" : 8
                    },
                    "indices" : 9,
                    "material" : 1
                }
            ]
        },
        {
            "name" : "Cube.002_0",
            "primitives" : [
                {
                    "attributes" : {
                        "POSITION" : 10,
                        "NORMAL" : 11,
                        "TANGENT" : 12,
                        "TEXCOORD_0" : 13,
                        "TEXCOORD_1" : 14
                    },
                    "indices" : 15,
                    "material" : 2
                }
            ]
        },
        {
            "name" : "Cube.004_0",
            "primitives" : [
                {
                    "attributes" : {
                        "POSITION" : 16,
                        "NORMAL" : 17,
                        "TANGENT" : 18,
                        "TEXCOORD_0" : 19
                    },
                    "indices" : 20,
                    "material" : 3
                }
            ]
        },
        {
            "name" : "Cube.005_0",
            "primitives" : [
                {
                    "attributes" : {
                        "POSITION" : 21,
                        "NORMAL" : 22,
                        "TANGENT" : 23,
                        "TEXCOORD_0" : 24
                    },
                    "indices" : 25,
                    "material" : 4
                }
            ]
        }
    ],
    "textures" : [
        {
            "sampler" : 0,
            "source" : 0
        },
        {
            "sampler" : 0,
            "source" : 1
        },
        {
            "sampler" : 0,
            "source" : 2
        },
        {
            "sampler" : 0,
            "source" : 3
        }
    ],
    "images" : [
        {
            "mimeType" : "image/png",
            "name" : "cristales_baseColor",
            "uri" : "textures/cristales_baseColor.png"
        },
        {
            "mimeType" : "image/jpeg",
            "name" : "carroceria_baseColor",
            "uri" : "textures/carroceria_baseColor.jpg"
        },
        {
            "mimeType" : "image/jpeg",
            "name" : "chasis_baseColor",
            "uri" : "textures/chasis_baseColor.jpg"
        },
        {
            "mimeType" : "image/jpeg",
            "name" : "ruedas_baseColor",
            "uri" : "textures/ruedas_baseColor.jpg"
        }
    ],
    "accessors" : [
        {
            "bufferView" : 0,
            "componentType" : 5126,
            "count" : 350,
            "max" : [
                1.3184800148010254,
                1.6783000230789185,
                2.768660068511963
            ],
            "min" : [
                -2.818540096282959,
                -1.7332099676132202,
                1.4731800556182861
            ],
            "type" : "VEC3"
        },
        {
            "bufferView" : 1,
            "componentType" : 5126,
            "count" : 350,
            "type" : "VEC3"
        },
        {
            "bufferView" : 2,
            "componentType" : 5126,
            "count" : 350,
            "type" : "VEC4"
        },
        {
            "bufferView" : 3,
            "componentType" : 5126,
            "count" : 350,
            "type" : "VEC2"
        },
        {
            "bufferView" : 4,
            "componentType" : 5123,
            "count" : 1656,
            "type" : "SCALAR"
        },
        {
            "bufferView" : 5,
            "componentType" : 5126,
            "count" : 21491,
            "max" : [
                3.8822898864746094,
                2.665649890899658,
                3.1786599159240723
            ],
            "min" : [
                -4.385990142822266,
                -2.6690499782562256,
                -1.0226600170135498
            ],
            "type" : "VEC3"
        },
        {
            "bufferView" : 6,
            "componentType" : 5126,
            "count" : 21491,
            "type" : "VEC3"
        },
        {
            "bufferView" : 7,
            "componentType" : 5126,
            "count" : 21491,
            "type" : "VEC4"
        },
        {
            "bufferView" : 8,
            "componentType" : 5126,
            "count" : 21491,
            "type" : "VEC2"
        },
        {
            "bufferView" : 9,
            "componentType" : 5123,
            "count" : 103248,
            "type" : "SCALAR"
        },
        {
            "bufferView" : 10,
            "componentType" : 5126,
            "count" : 3861,
            "max" : [
                1.3184800148010254,
                1.6783000230789185,
                2.963510036468506
            ],
            "min" : [
                -2.818540096282959,
                -1.7332099676132202,
                -0.7385799884796143
            ],
            "type" : "VEC3"
        },
        {
            "bufferView" : 11,
            "componentType" : 5126,
            "count" : 3861,
            "type" : "VEC3"
        },
        {
            "bufferView" : 12,
            "componentType" : 5126,
            "count" : 3861,
            "type" : "VEC4"
        },
        {
            "bufferView" : 13,
            "componentType" : 5126,
            "count" : 3861,
            "type" : "VEC2"
        },
        {
            "bufferView" : 14,
            "componentType" : 5126,
            "count" : 3861,
            "type" : "VEC2"
        },
        {
            "bufferView" : 15,
            "componentType" : 5123,
            "count" : 18078,
            "type" : "SCALAR"
        },
        {
            "bufferView" : 16,
            "componentType" : 5126,
            "count" : 8260,
            "max" : [
                3.637629985809326,
                2.346019983291626,
                1.876960039138794
            ],
            "min" : [
                -4.555669784545898,
                -2.3502399921417236,
                -1.0263700485229492
            ],
            "type" : "VEC3"
        },
        {
            "bufferView" : 17,
            "componentType" : 5126,
            "count" : 8260,
            "type" : "VEC3"
        },
        {
            "bufferView" : 18,
            "componentType" : 5126,
            "count" : 8260,
            "type" : "VEC4"
        },
        {
            "bufferView" : 19,
            "componentType" : 5126,
            "count" : 8260,
            "type" : "VEC2"
        },
        {
            "bufferView" : 20,
            "componentType" : 5123,
            "count" : 33627,
            "type" : "SCALAR"
        },
        {
            "bufferView" : 21,
            "componentType" : 5126,
            "count" : 55049,
            "max" : [
                2.5745298862457275,
                2.908720016479492,
                1.0769200325012207
            ],
            "min" : [
                -3.531869888305664,
                -2.8895199298858643,
                -1.2346700429916382
            ],
            "type" : "VEC3"
        },
        {
            "bufferView" : 22,
            "componentType" : 5126,
            "count" : 55049,
            "type" : "VEC3"
        },
        {
            "bufferView" : 23,
            "componentType" : 5126,
            "count" : 55049,
            "type" : "VEC4"
        },
        {
            "bufferView" : 24,
            "componentType" : 5126,
            "count" : 55049,
            "type" : "VEC2"
        },
        {
            "bufferView" : 25,
            "componentType" : 5123,
            "count" : 255645,
            "type" : "SCALAR"
        }
    ],
    "bufferViews" : [
        {
            "buffer" : 0,
            "byteLength" : 4200,
            "byteOffset" : 0
        },
        {
            "buffer" : 0,
            "byteLength" : 4200,
            "byteOffset" : 4200
        },
        {
            "buffer" : 0,
            "byteLength" : 5600,
            "byteOffset" : 8400
        },
        {
            "buffer" : 0,
            "byteLength" : 2800,
            "byteOffset" : 14000
        },
        {
            "buffer" : 0,
            "byteLength" : 3312,
            "byteOffset" : 16800
        },
        {
            "buffer" : 0,
            "byteLength" : 257892,
            "byteOffset" : 20112
        },
        {
            "buffer" : 0,
            "byteLength" : 257892,
            "byteOffset" : 278004
        },
        {
            "buffer" : 0,
            "byteLength" : 343856,
            "byteOffset" : 535896
        },
        {
            "buffer" : 0,
            "byteLength" : 171928,
            "byteOffset" : 879752
        },
        {
            "buffer" : 0,
            "byteLength" : 206496,
            "byteOffset" : 1051680
        },
        {
            "buffer" : 0,
            "byteLength" : 46332,
            "byteOffset" : 1258176
        },
        {
            "buffer" : 0,
            "byteLength" : 46332,
            "byteOffset" : 1304508
        },
        {
            "buffer" : 0,
            "byteLength" : 61776,
            "byteOffset" : 1350840
        },
        {
            "buffer" : 0,
            "byteLength" : 30888,
            "byteOffset" : 1412616
        },
        {
            "buffer" : 0,
            "byteLength" : 30888,
            "byteOffset" : 1443504
        },
        {
            "buffer" : 0,
            "byteLength" : 36156,
            "byteOffset" : 1474392
        },
        {
            "buffer" : 0,
            "byteLength" : 99120,
            "byteOffset" : 1510548
        },
        {
            "buffer" : 0,
            "byteLength" : 99120,
            "byteOffset" : 1609668
        },
        {
            "buffer" : 0,
            "byteLength" : 132160,
            "byteOffset" : 1708788
        },
        {
            "buffer" : 0,
            "byteLength" : 66080,
            "byteOffset" : 1840948
        },
        {
            "buffer" : 0,
            "byteLength" : 67254,
            "byteOffset" : 1907028
        },
        {
            "buffer" : 0,
            "byteLength" : 660588,
            "byteOffset" : 1974284
        },
        {
            "buffer" : 0,
            "byteLength" : 660588,
            "byteOffset" : 2634872
        },
        {
            "buffer" : 0,
            "byteLength" : 880784,
            "byteOffset" : 3295460
        },
        {
            "buffer" : 0,
            "byteLength" : 440392,
            "byteOffset" : 4176244
        },
        {
            "buffer" : 0,
            "byteLength" : 511290,
            "byteOffset" : 4616636
        }
    ],
    "samplers" : [
        {
            "magFilter" : 9729,
            "minFilter" : 9987
        }
    ],
    "buffers" : [
        {
            "byteLength" : 5127928,
            "uri" : "scene.bin"
        }
    ]
}
