{
    "asset" : {
        "generator" : "Khronos glTF Blender I/O v3.2.43",
        "version" : "2.0"
    },
    "scene" : 0,
    "scenes" : [
        {
            "name" : "Scene",
            "nodes" : [
                5
            ]
        }
    ],
    "nodes" : [
        {
            "mesh" : 0,
            "name" : "Cerberus00_Fixed_08 - Default_0",
            "translation" : [
                0,
                7.629395440744702e-06,
                0
            ]
        },
        {
            "children" : [
                0
            ],
            "name" : "Object_4",
            "translation" : [
                2.2559845547220903e-06,
                93.72016143798828,
                4.0966378946905024e-06
            ]
        },
        {
            "children" : [
                1
            ],
            "name" : "Cerberus00_Fixed",
            "rotation" : [
                -0.7071068286895752,
                0,
                0,
                0.7071067094802856
            ]
        },
        {
            "children" : [
                2
            ],
            "name" : "RootNode"
        },
        {
            "children" : [
                3
            ],
            "name" : "5f99eff2796e438a94abd9cdecf2a893.fbx",
            "rotation" : [
                0.7071068286895752,
                0,
                0,
                0.7071067094802856
            ]
        },
        {
            "children" : [
                4
            ],
            "name" : "Sketchfab_model",
            "rotation" : [
                -0.7071068286895752,
                0,
                0,
                0.7071067094802856
            ]
        }
    ],
    "materials" : [
        {
            "name" : "08_-_Default",
            "normalTexture" : {
                "index" : 0,
                "scale" : 0.4099999964237213
            },
            "pbrMetallicRoughness" : {
                "baseColorTexture" : {
                    "index" : 1
                },
                "metallicRoughnessTexture" : {
                    "index" : 2
                }
            }
        }
    ],
    "meshes" : [
        {
            "name" : "Cerberus00_Fixed_08 - Default_0",
            "primitives" : [
                {
                    "attributes" : {
                        "POSITION" : 0,
                        "NORMAL" : 1,
                        "TEXCOORD_0" : 2
                    },
                    "indices" : 3,
                    "material" : 0
                }
            ]
        }
    ],
    "textures" : [
        {
            "sampler" : 0,
            "source" : 0
        },
        {
            "sampler" : 0,
            "source" : 1
        },
        {
            "sampler" : 0,
            "source" : 2
        }
    ],
    "images" : [
        {
            "mimeType" : "image/png",
            "name" : "08_-_Default_normal",
            "uri" : "textures/08_-_Default_normal.png"
        },
        {
            "mimeType" : "image/png",
            "name" : "08_-_Default_baseColor",
            "uri" : "textures/08_-_Default_baseColor.png"
        },
        {
            "mimeType" : "image/png",
            "name" : "08_-_Default_metallicRoughness",
            "uri" : "textures/08_-_Default_metallicRoughness.png"
        }
    ],
    "accessors" : [
        {
            "bufferView" : 0,
            "componentType" : 5126,
            "count" : 32480,
            "max" : [
                12.520315170288086,
                25.837120056152344,
                18.77880096435547
            ],
            "min" : [
                -19.99312400817871,
                -130.2689666748047,
                -47.20871353149414
            ],
            "type" : "VEC3"
        },
        {
            "bufferView" : 1,
            "componentType" : 5126,
            "count" : 32480,
            "type" : "VEC3"
        },
        {
            "bufferView" : 2,
            "componentType" : 5126,
            "count" : 32480,
            "type" : "VEC2"
        },
        {
            "bufferView" : 3,
            "componentType" : 5123,
            "count" : 100623,
            "type" : "SCALAR"
        }
    ],
    "bufferViews" : [
        {
            "buffer" : 0,
            "byteLength" : 389760,
            "byteOffset" : 0
        },
        {
            "buffer" : 0,
            "byteLength" : 389760,
            "byteOffset" : 389760
        },
        {
            "buffer" : 0,
            "byteLength" : 259840,
            "byteOffset" : 779520
        },
        {
            "buffer" : 0,
            "byteLength" : 201246,
            "byteOffset" : 1039360
        }
    ],
    "samplers" : [
        {
            "magFilter" : 9729,
            "minFilter" : 9987
        }
    ],
    "buffers" : [
        {
            "byteLength" : 1240608,
            "uri" : "cerberus.bin"
        }
    ]
}
