{
    "asset" : {
        "generator" : "Khronos glTF Blender I/O v3.2.43",
        "version" : "2.0"
    },
    "scene" : 0,
    "scenes" : [
        {
            "name" : "Scene",
            "nodes" : [
                6
            ]
        }
    ],
    "nodes" : [
        {
            "mesh" : 0,
            "name" : "Object006_Material #294_0"
        },
        {
            "children" : [
                0
            ],
            "name" : "Object006",
            "rotation" : [
                -0.7071068286895752,
                0,
                0,
                0.7071067094802856
            ],
            "translation" : [
                0,
                -4.760246276855469,
                0
            ]
        },
        {
            "mesh" : 1,
            "name" : "Object007_Material #295_0"
        },
        {
            "children" : [
                2
            ],
            "name" : "Object007",
            "rotation" : [
                -0.7071068286895752,
                0,
                0,
                0.7071067094802856
            ],
            "translation" : [
                0,
                -4.760246276855469,
                0
            ]
        },
        {
            "children" : [
                1,
                3
            ],
            "name" : "RootNode"
        },
        {
            "children" : [
                4
            ],
            "name" : "oldcar.FBX",
            "rotation" : [
                0.7071068286895752,
                0,
                0,
                0.7071067094802856
            ]
        },
        {
            "children" : [
                5
            ],
            "name" : "Sketchfab_model",
            "rotation" : [
                -0.7071068286895752,
                0,
                0,
                0.7071067094802856
            ]
        }
    ],
    "materials" : [
        {
            "doubleSided" : true,
            "name" : "Material_294",
            "normalTexture" : {
                "index" : 0
            },
            "occlusionTexture" : {
                "index" : 1
            },
            "pbrMetallicRoughness" : {
                "baseColorTexture" : {
                    "index" : 2
                },
                "metallicRoughnessTexture" : {
                    "index" : 1
                }
            }
        },
        {
            "alphaMode" : "BLEND",
            "doubleSided" : true,
            "name" : "Material_295",
            "normalTexture" : {
                "index" : 3
            },
            "occlusionTexture" : {
                "index" : 4
            },
            "pbrMetallicRoughness" : {
                "baseColorTexture" : {
                    "index" : 5
                },
                "metallicRoughnessTexture" : {
                    "index" : 4
                }
            }
        }
    ],
    "meshes" : [
        {
            "name" : "Object006_Material #294_0",
            "primitives" : [
                {
                    "attributes" : {
                        "POSITION" : 0,
                        "NORMAL" : 1,
                        "TANGENT" : 2,
                        "TEXCOORD_0" : 3
                    },
                    "indices" : 4,
                    "material" : 0
                }
            ]
        },
        {
            "name" : "Object007_Material #295_0",
            "primitives" : [
                {
                    "attributes" : {
                        "POSITION" : 5,
                        "NORMAL" : 6,
                        "TANGENT" : 7,
                        "TEXCOORD_0" : 8,
                        "TEXCOORD_1" : 9
                    },
                    "indices" : 10,
                    "material" : 1
                }
            ]
        }
    ],
    "textures" : [
        {
            "sampler" : 0,
            "source" : 0
        },
        {
            "sampler" : 0,
            "source" : 1
        },
        {
            "sampler" : 0,
            "source" : 2
        },
        {
            "sampler" : 0,
            "source" : 0
        },
        {
            "sampler" : 0,
            "source" : 1
        },
        {
            "sampler" : 0,
            "source" : 3
        }
    ],
    "images" : [
        {
            "mimeType" : "image/png",
            "name" : "Material_294_normal",
            "uri" : "textures/Material_294_normal.png"
        },
        {
            "mimeType" : "image/png",
            "name" : "Material_294_metallicRoughness",
            "uri" : "textures/Material_294_metallicRoughness.png"
        },
        {
            "mimeType" : "image/png",
            "name" : "Material_294_baseColor",
            "uri" : "textures/Material_294_baseColor.png"
        },
        {
            "mimeType" : "image/png",
            "name" : "Material_295_baseColor",
            "uri" : "textures/Material_295_baseColor.png"
        }
    ],
    "accessors" : [
        {
            "bufferView" : 0,
            "componentType" : 5126,
            "count" : 3163,
            "max" : [
                129.85162353515625,
                390.18011474609375,
                189.60618591308594
            ],
            "min" : [
                -130.06381225585938,
                -333.3890380859375,
                5.686756134033203
            ],
            "type" : "VEC3"
        },
        {
            "bufferView" : 1,
            "componentType" : 5126,
            "count" : 3163,
            "type" : "VEC3"
        },
        {
            "bufferView" : 2,
            "componentType" : 5126,
            "count" : 3163,
            "type" : "VEC4"
        },
        {
            "bufferView" : 3,
            "componentType" : 5126,
            "count" : 3163,
            "type" : "VEC2"
        },
        {
            "bufferView" : 4,
            "componentType" : 5123,
            "count" : 9252,
            "type" : "SCALAR"
        },
        {
            "bufferView" : 5,
            "componentType" : 5126,
            "count" : 62,
            "max" : [
                104.2876968383789,
                246.09225463867188,
                175.285400390625
            ],
            "min" : [
                -104.49987030029297,
                -133.18006896972656,
                122.31787109375
            ],
            "type" : "VEC3"
        },
        {
            "bufferView" : 6,
            "componentType" : 5126,
            "count" : 62,
            "type" : "VEC3"
        },
        {
            "bufferView" : 7,
            "componentType" : 5126,
            "count" : 62,
            "type" : "VEC4"
        },
        {
            "bufferView" : 8,
            "componentType" : 5126,
            "count" : 62,
            "type" : "VEC2"
        },
        {
            "bufferView" : 9,
            "componentType" : 5126,
            "count" : 62,
            "type" : "VEC2"
        },
        {
            "bufferView" : 10,
            "componentType" : 5123,
            "count" : 138,
            "type" : "SCALAR"
        }
    ],
    "bufferViews" : [
        {
            "buffer" : 0,
            "byteLength" : 37956,
            "byteOffset" : 0
        },
        {
            "buffer" : 0,
            "byteLength" : 37956,
            "byteOffset" : 37956
        },
        {
            "buffer" : 0,
            "byteLength" : 50608,
            "byteOffset" : 75912
        },
        {
            "buffer" : 0,
            "byteLength" : 25304,
            "byteOffset" : 126520
        },
        {
            "buffer" : 0,
            "byteLength" : 18504,
            "byteOffset" : 151824
        },
        {
            "buffer" : 0,
            "byteLength" : 744,
            "byteOffset" : 170328
        },
        {
            "buffer" : 0,
            "byteLength" : 744,
            "byteOffset" : 171072
        },
        {
            "buffer" : 0,
            "byteLength" : 992,
            "byteOffset" : 171816
        },
        {
            "buffer" : 0,
            "byteLength" : 496,
            "byteOffset" : 172808
        },
        {
            "buffer" : 0,
            "byteLength" : 496,
            "byteOffset" : 173304
        },
        {
            "buffer" : 0,
            "byteLength" : 276,
            "byteOffset" : 173800
        }
    ],
    "samplers" : [
        {
            "magFilter" : 9729,
            "minFilter" : 9987
        }
    ],
    "buffers" : [
        {
            "byteLength" : 174076,
            "uri" : "scene.bin"
        }
    ]
}
